<svg width="134" height="134" viewBox="0 0 134 134" fill="none" xmlns="http://www.w3.org/2000/svg">
<g filter="url(#filter0_d_753_4544)">
<rect x="7" y="7" width="120" height="120" rx="60" fill="white"/>
<rect x="5.5" y="5.5" width="123" height="123" rx="61.5" stroke="white" stroke-width="3"/>
<circle cx="67" cy="67" r="60" fill="#D1D1D1"/>
<mask id="mask0_753_4544" style="mask-type:alpha" maskUnits="userSpaceOnUse" x="35" y="35" width="64" height="64">
<rect x="35" y="35" width="64" height="64" fill="#D9D9D9"/>
</mask>
<g mask="url(#mask0_753_4544)">
<path d="M67.0003 67.0003C64.067 67.0003 61.5559 65.9559 59.467 63.867C57.3781 61.7781 56.3337 59.267 56.3337 56.3337C56.3337 53.4003 57.3781 50.8892 59.467 48.8003C61.5559 46.7114 64.067 45.667 67.0003 45.667C69.9337 45.667 72.4448 46.7114 74.5337 48.8003C76.6225 50.8892 77.667 53.4003 77.667 56.3337C77.667 59.267 76.6225 61.7781 74.5337 63.867C72.4448 65.9559 69.9337 67.0003 67.0003 67.0003ZM83.0003 88.3337H51.0003C49.5337 88.3337 48.2781 87.8114 47.2337 86.767C46.1892 85.7225 45.667 84.467 45.667 83.0003V80.867C45.667 79.3559 46.0559 77.967 46.8337 76.7003C47.6114 75.4337 48.6448 74.467 49.9337 73.8003C52.6892 72.4225 55.4892 71.3892 58.3337 70.7003C61.1781 70.0114 64.067 69.667 67.0003 69.667C69.9337 69.667 72.8225 70.0114 75.667 70.7003C78.5114 71.3892 81.3114 72.4225 84.067 73.8003C85.3559 74.467 86.3892 75.4337 87.167 76.7003C87.9448 77.967 88.3337 79.3559 88.3337 80.867V83.0003C88.3337 84.467 87.8114 85.7225 86.767 86.767C85.7225 87.8114 84.467 88.3337 83.0003 88.3337ZM51.0003 83.0003H83.0003V80.867C83.0003 80.3781 82.8781 79.9337 82.6337 79.5337C82.3892 79.1337 82.067 78.8225 81.667 78.6003C79.267 77.4003 76.8448 76.5003 74.4003 75.9003C71.9559 75.3003 69.4892 75.0003 67.0003 75.0003C64.5114 75.0003 62.0448 75.3003 59.6003 75.9003C57.1559 76.5003 54.7337 77.4003 52.3337 78.6003C51.9337 78.8225 51.6114 79.1337 51.367 79.5337C51.1225 79.9337 51.0003 80.3781 51.0003 80.867V83.0003ZM67.0003 61.667C68.467 61.667 69.7225 61.1448 70.767 60.1003C71.8114 59.0559 72.3337 57.8003 72.3337 56.3337C72.3337 54.867 71.8114 53.6114 70.767 52.567C69.7225 51.5225 68.467 51.0003 67.0003 51.0003C65.5337 51.0003 64.2781 51.5225 63.2337 52.567C62.1892 53.6114 61.667 54.867 61.667 56.3337C61.667 57.8003 62.1892 59.0559 63.2337 60.1003C64.2781 61.1448 65.5337 61.667 67.0003 61.667Z" fill="white"/>
</g>
</g>
<defs>
<filter id="filter0_d_753_4544" x="0" y="0" width="134" height="134" filterUnits="userSpaceOnUse" color-interpolation-filters="sRGB">
<feFlood flood-opacity="0" result="BackgroundImageFix"/>
<feColorMatrix in="SourceAlpha" type="matrix" values="0 0 0 0 0 0 0 0 0 0 0 0 0 0 0 0 0 0 127 0" result="hardAlpha"/>
<feOffset/>
<feGaussianBlur stdDeviation="2"/>
<feColorMatrix type="matrix" values="0 0 0 0 0 0 0 0 0 0 0 0 0 0 0 0 0 0 0.1 0"/>
<feBlend mode="normal" in2="BackgroundImageFix" result="effect1_dropShadow_753_4544"/>
<feBlend mode="normal" in="SourceGraphic" in2="effect1_dropShadow_753_4544" result="shape"/>
</filter>
</defs>
</svg>
